{"accessors":[{"bufferView":0,"byteOffset":0,"componentType":5126,"count":24,"max":[35,0.1,12.5],"min":[-35,-0.1,-12.5],"normalized":false,"type":"VEC3"},{"bufferView":1,"byteOffset":0,"componentType":5126,"count":24,"max":[1,0,1,1],"min":[-1,-0.000015,-1,1],"normalized":false,"type":"VEC4"},{"bufferView":2,"byteOffset":0,"componentType":5126,"count":24,"max":[1,1,1],"min":[-1,-1,-1],"normalized":false,"type":"VEC3"},{"bufferView":3,"byteOffset":0,"componentType":5126,"count":24,"max":[1,1],"min":[0,0],"normalized":false,"type":"VEC2"},{"bufferView":4,"byteOffset":0,"componentType":5125,"count":36,"max":[23],"min":[0],"normalized":false,"type":"SCALAR"},{"bufferView":5,"byteOffset":0,"componentType":5126,"count":4,"max":[1,0,1],"min":[-1,0,-1],"normalized":false,"type":"VEC3"},{"bufferView":6,"byteOffset":0,"componentType":5126,"count":4,"max":[1,0,-0.000015,1],"min":[1,0,-0.000015,1],"normalized":false,"type":"VEC4"},{"bufferView":7,"byteOffset":0,"componentType":5126,"count":4,"max":[0,1,-0.000015],"min":[0,1,-0.000015],"normalized":false,"type":"VEC3"},{"bufferView":8,"byteOffset":0,"componentType":5126,"count":4,"max":[1,1],"min":[0,0],"normalized":false,"type":"VEC2"},{"bufferView":9,"byteOffset":0,"componentType":5125,"count":6,"max":[3],"min":[0],"normalized":false,"type":"SCALAR"},{"bufferView":10,"byteOffset":0,"componentType":5126,"count":4,"max":[1,0,1],"min":[-1,0,-1],"normalized":false,"type":"VEC3"},{"bufferView":11,"byteOffset":0,"componentType":5126,"count":4,"max":[1,0,-0.000015,1],"min":[1,0,-0.000015,1],"normalized":false,"type":"VEC4"},{"bufferView":12,"byteOffset":0,"componentType":5126,"count":4,"max":[0,1,-0.000015],"min":[0,1,-0.000015],"normalized":false,"type":"VEC3"},{"bufferView":13,"byteOffset":0,"componentType":5126,"count":4,"max":[1,1],"min":[0,0],"normalized":false,"type":"VEC2"},{"bufferView":14,"byteOffset":0,"componentType":5125,"count":6,"max":[3],"min":[0],"normalized":false,"type":"SCALAR"},{"bufferView":15,"byteOffset":0,"componentType":5126,"count":4,"max":[1,0,1],"min":[-1,0,-1],"normalized":false,"type":"VEC3"},{"bufferView":16,"byteOffset":0,"componentType":5126,"count":4,"max":[1,0,-0.000015,1],"min":[1,0,-0.000015,1],"normalized":false,"type":"VEC4"},{"bufferView":17,"byteOffset":0,"componentType":5126,"count":4,"max":[0,1,-0.000015],"min":[0,1,-0.000015],"normalized":false,"type":"VEC3"},{"bufferView":18,"byteOffset":0,"componentType":5126,"count":4,"max":[1,1],"min":[0,0],"normalized":false,"type":"VEC2"},{"bufferView":19,"byteOffset":0,"componentType":5125,"count":6,"max":[3],"min":[0],"normalized":false,"type":"SCALAR"},{"bufferView":20,"byteOffset":0,"componentType":5126,"count":4,"max":[1,0,1],"min":[-1,0,-1],"normalized":false,"type":"VEC3"},{"bufferView":21,"byteOffset":0,"componentType":5126,"count":4,"max":[1,0,-0.000015,1],"min":[1,0,-0.000015,1],"normalized":false,"type":"VEC4"},{"bufferView":22,"byteOffset":0,"componentType":5126,"count":4,"max":[0,1,-0.000015],"min":[0,1,-0.000015],"normalized":false,"type":"VEC3"},{"bufferView":23,"byteOffset":0,"componentType":5126,"count":4,"max":[1,1],"min":[0,0],"normalized":false,"type":"VEC2"},{"bufferView":24,"byteOffset":0,"componentType":5125,"count":6,"max":[3],"min":[0],"normalized":false,"type":"SCALAR"},{"bufferView":25,"byteOffset":0,"componentType":5126,"count":4,"max":[1,0,1],"min":[-1,0,-1],"normalized":false,"type":"VEC3"},{"bufferView":26,"byteOffset":0,"componentType":5126,"count":4,"max":[1,0,-0.000015,1],"min":[1,0,-0.000015,1],"normalized":false,"type":"VEC4"},{"bufferView":27,"byteOffset":0,"componentType":5126,"count":4,"max":[0,1,-0.000015],"min":[0,1,-0.000015],"normalized":false,"type":"VEC3"},{"bufferView":28,"byteOffset":0,"componentType":5126,"count":4,"max":[1,1],"min":[0,0],"normalized":false,"type":"VEC2"},{"bufferView":29,"byteOffset":0,"componentType":5125,"count":6,"max":[3],"min":[0],"normalized":false,"type":"SCALAR"},{"bufferView":30,"byteOffset":0,"componentType":5126,"count":4,"max":[1,0,1],"min":[-1,0,-1],"normalized":false,"type":"VEC3"},{"bufferView":31,"byteOffset":0,"componentType":5126,"count":4,"max":[1,0,-0.000015,1],"min":[1,0,-0.000015,1],"normalized":false,"type":"VEC4"},{"bufferView":32,"byteOffset":0,"componentType":5126,"count":4,"max":[0,1,-0.000015],"min":[0,1,-0.000015],"normalized":false,"type":"VEC3"},{"bufferView":33,"byteOffset":0,"componentType":5126,"count":4,"max":[1,1],"min":[0,0],"normalized":false,"type":"VEC2"},{"bufferView":34,"byteOffset":0,"componentType":5125,"count":6,"max":[3],"min":[0],"normalized":false,"type":"SCALAR"},{"bufferView":35,"byteOffset":0,"componentType":5126,"count":4,"max":[1,0,1],"min":[-1,0,-1],"normalized":false,"type":"VEC3"},{"bufferView":36,"byteOffset":0,"componentType":5126,"count":4,"max":[1,0,-0.000015,1],"min":[1,0,-0.000015,1],"normalized":false,"type":"VEC4"},{"bufferView":37,"byteOffset":0,"componentType":5126,"count":4,"max":[0,1,-0.000015],"min":[0,1,-0.000015],"normalized":false,"type":"VEC3"},{"bufferView":38,"byteOffset":0,"componentType":5126,"count":4,"max":[1,1],"min":[0,0],"normalized":false,"type":"VEC2"},{"bufferView":39,"byteOffset":0,"componentType":5125,"count":6,"max":[3],"min":[0],"normalized":false,"type":"SCALAR"},{"bufferView":40,"byteOffset":0,"componentType":5126,"count":4,"max":[1,0,1],"min":[-1,0,-1],"normalized":false,"type":"VEC3"},{"bufferView":41,"byteOffset":0,"componentType":5126,"count":4,"max":[1,0,-0.000015,1],"min":[1,0,-0.000015,1],"normalized":false,"type":"VEC4"},{"bufferView":42,"byteOffset":0,"componentType":5126,"count":4,"max":[0,1,-0.000015],"min":[0,1,-0.000015],"normalized":false,"type":"VEC3"},{"bufferView":43,"byteOffset":0,"componentType":5126,"count":4,"max":[1,1],"min":[0,0],"normalized":false,"type":"VEC2"},{"bufferView":44,"byteOffset":0,"componentType":5125,"count":6,"max":[3],"min":[0],"normalized":false,"type":"SCALAR"},{"bufferView":45,"byteOffset":0,"componentType":5126,"count":4,"max":[1,0,1],"min":[-1,0,-1],"normalized":false,"type":"VEC3"},{"bufferView":46,"byteOffset":0,"componentType":5126,"count":4,"max":[1,0,-0.000015,1],"min":[1,0,-0.000015,1],"normalized":false,"type":"VEC4"},{"bufferView":47,"byteOffset":0,"componentType":5126,"count":4,"max":[0,1,-0.000015],"min":[0,1,-0.000015],"normalized":false,"type":"VEC3"},{"bufferView":48,"byteOffset":0,"componentType":5126,"count":4,"max":[1,1],"min":[0,0],"normalized":false,"type":"VEC2"},{"bufferView":49,"byteOffset":0,"componentType":5125,"count":6,"max":[3],"min":[0],"normalized":false,"type":"SCALAR"}],"asset":{"generator":"Godot Engine v4.1.1.stable.official@bd6af8e0ea69167dd0627f3bd54f9105bda0f8b5","version":"2.0"},"bufferViews":[{"buffer":0,"byteLength":288,"byteOffset":0},{"buffer":0,"byteLength":384,"byteOffset":288},{"buffer":0,"byteLength":288,"byteOffset":672},{"buffer":0,"byteLength":192,"byteOffset":960},{"buffer":0,"byteLength":144,"byteOffset":1152},{"buffer":0,"byteLength":48,"byteOffset":1296},{"buffer":0,"byteLength":64,"byteOffset":1344},{"buffer":0,"byteLength":48,"byteOffset":1408},{"buffer":0,"byteLength":32,"byteOffset":1456},{"buffer":0,"byteLength":24,"byteOffset":1488},{"buffer":0,"byteLength":48,"byteOffset":1512},{"buffer":0,"byteLength":64,"byteOffset":1560},{"buffer":0,"byteLength":48,"byteOffset":1624},{"buffer":0,"byteLength":32,"byteOffset":1672},{"buffer":0,"byteLength":24,"byteOffset":1704},{"buffer":0,"byteLength":48,"byteOffset":1728},{"buffer":0,"byteLength":64,"byteOffset":1776},{"buffer":0,"byteLength":48,"byteOffset":1840},{"buffer":0,"byteLength":32,"byteOffset":1888},{"buffer":0,"byteLength":24,"byteOffset":1920},{"buffer":0,"byteLength":48,"byteOffset":1944},{"buffer":0,"byteLength":64,"byteOffset":1992},{"buffer":0,"byteLength":48,"byteOffset":2056},{"buffer":0,"byteLength":32,"byteOffset":2104},{"buffer":0,"byteLength":24,"byteOffset":2136},{"buffer":0,"byteLength":48,"byteOffset":2160},{"buffer":0,"byteLength":64,"byteOffset":2208},{"buffer":0,"byteLength":48,"byteOffset":2272},{"buffer":0,"byteLength":32,"byteOffset":2320},{"buffer":0,"byteLength":24,"byteOffset":2352},{"buffer":0,"byteLength":48,"byteOffset":2376},{"buffer":0,"byteLength":64,"byteOffset":2424},{"buffer":0,"byteLength":48,"byteOffset":2488},{"buffer":0,"byteLength":32,"byteOffset":2536},{"buffer":0,"byteLength":24,"byteOffset":2568},{"buffer":0,"byteLength":48,"byteOffset":2592},{"buffer":0,"byteLength":64,"byteOffset":2640},{"buffer":0,"byteLength":48,"byteOffset":2704},{"buffer":0,"byteLength":32,"byteOffset":2752},{"buffer":0,"byteLength":24,"byteOffset":2784},{"buffer":0,"byteLength":48,"byteOffset":2808},{"buffer":0,"byteLength":64,"byteOffset":2856},{"buffer":0,"byteLength":48,"byteOffset":2920},{"buffer":0,"byteLength":32,"byteOffset":2968},{"buffer":0,"byteLength":24,"byteOffset":3000},{"buffer":0,"byteLength":48,"byteOffset":3024},{"buffer":0,"byteLength":64,"byteOffset":3072},{"buffer":0,"byteLength":48,"byteOffset":3136},{"buffer":0,"byteLength":32,"byteOffset":3184},{"buffer":0,"byteLength":24,"byteOffset":3216}],"buffers":[{"byteLength":3240,"uri":"track0.bin"}],"extensions":{"OMI_collider":{"colliders":[{"size":[70,0.200000002980232,25],"type":"box"}]}},"extensionsUsed":["OMI_collider","OMI_physics_body"],"materials":[{"extensions":{},"pbrMetallicRoughness":{"baseColorFactor":[0.0343399420380592,0.24620096385479,0.775822937488556,1],"metallicFactor":0,"roughnessFactor":1}},{"extensions":{},"pbrMetallicRoughness":{"baseColorFactor":[0.99999988079071,0.99999988079071,0.99999988079071,1],"metallicFactor":0,"roughnessFactor":1}},{"extensions":{},"pbrMetallicRoughness":{"baseColorFactor":[0.99999988079071,0.99999988079071,0.99999988079071,1],"metallicFactor":0,"roughnessFactor":1}},{"extensions":{},"pbrMetallicRoughness":{"baseColorFactor":[0.99999988079071,0.99999988079071,0.99999988079071,1],"metallicFactor":0,"roughnessFactor":1}},{"extensions":{},"pbrMetallicRoughness":{"baseColorFactor":[0.99999988079071,0.99999988079071,0.99999988079071,1],"metallicFactor":0,"roughnessFactor":1}},{"extensions":{},"pbrMetallicRoughness":{"baseColorFactor":[0.99999988079071,0.99999988079071,0.99999988079071,1],"metallicFactor":0,"roughnessFactor":1}},{"extensions":{},"pbrMetallicRoughness":{"baseColorFactor":[0.99999988079071,0.99999988079071,0.99999988079071,1],"metallicFactor":0,"roughnessFactor":1}},{"extensions":{},"pbrMetallicRoughness":{"baseColorFactor":[0.99999988079071,0.99999988079071,0.99999988079071,1],"metallicFactor":0,"roughnessFactor":1}},{"extensions":{},"pbrMetallicRoughness":{"baseColorFactor":[0.99999988079071,0.99999988079071,0.99999988079071,1],"metallicFactor":0,"roughnessFactor":1}},{"emissiveFactor":[0.411644488573074,0.411644488573074,0.411644488573074],"extensions":{},"pbrMetallicRoughness":{"baseColorFactor":[0.132868319749832,0.0382042676210403,0.0953071936964989,1],"metallicFactor":0,"roughnessFactor":1}}],"meshes":[{"extras":{"targetNames":[]},"primitives":[{"attributes":{"NORMAL":2,"POSITION":0,"TANGENT":1,"TEXCOORD_0":3},"indices":4,"material":0,"mode":4}]},{"extras":{"targetNames":[]},"primitives":[{"attributes":{"NORMAL":7,"POSITION":5,"TANGENT":6,"TEXCOORD_0":8},"indices":9,"material":1,"mode":4}]},{"extras":{"targetNames":[]},"primitives":[{"attributes":{"NORMAL":12,"POSITION":10,"TANGENT":11,"TEXCOORD_0":13},"indices":14,"material":2,"mode":4}]},{"extras":{"targetNames":[]},"primitives":[{"attributes":{"NORMAL":17,"POSITION":15,"TANGENT":16,"TEXCOORD_0":18},"indices":19,"material":3,"mode":4}]},{"extras":{"targetNames":[]},"primitives":[{"attributes":{"NORMAL":22,"POSITION":20,"TANGENT":21,"TEXCOORD_0":23},"indices":24,"material":4,"mode":4}]},{"extras":{"targetNames":[]},"primitives":[{"attributes":{"NORMAL":27,"POSITION":25,"TANGENT":26,"TEXCOORD_0":28},"indices":29,"material":5,"mode":4}]},{"extras":{"targetNames":[]},"primitives":[{"attributes":{"NORMAL":32,"POSITION":30,"TANGENT":31,"TEXCOORD_0":33},"indices":34,"material":6,"mode":4}]},{"extras":{"targetNames":[]},"primitives":[{"attributes":{"NORMAL":37,"POSITION":35,"TANGENT":36,"TEXCOORD_0":38},"indices":39,"material":7,"mode":4}]},{"extras":{"targetNames":[]},"primitives":[{"attributes":{"NORMAL":42,"POSITION":40,"TANGENT":41,"TEXCOORD_0":43},"indices":44,"material":8,"mode":4}]},{"extras":{"targetNames":[]},"primitives":[{"attributes":{"NORMAL":47,"POSITION":45,"TANGENT":46,"TEXCOORD_0":48},"indices":49,"material":9,"mode":4}]}],"nodes":[{"children":[1,4,12,14],"extensions":{},"name":"Track"},{"children":[2],"extensions":{"OMI_physics_body":{"type":"static"}},"name":"TrackBody"},{"children":[3],"extensions":{"OMI_collider":{"collider":0}},"name":"CollisionShape3D"},{"extensions":{},"mesh":0,"name":"MeshInstance3D"},{"children":[5,6,7,8,9,10,11],"extensions":{},"name":"VerticalLines"},{"extensions":{},"mesh":1,"name":"MeshInstance3D2","scale":[35,1,0.100000001490116],"translation":[0.00000000000208164995657567,0.200000002980232,11.5]},{"extensions":{},"mesh":2,"name":"MeshInstance3D7","scale":[35,1,0.100000001490116],"translation":[0.00000000000208164995657567,0.200000002980232,12.4331998825073]},{"extensions":{},"mesh":3,"name":"MeshInstance3D22","scale":[35,1,0.100000001490116],"translation":[0.00000000000208164995657567,0.200000002980232,6]},{"extensions":{},"mesh":4,"name":"MeshInstance3D3","scale":[35,1,0.100000001490116],"translation":[0.00000000000208164995657567,0.200000002980232,0]},{"extensions":{},"mesh":5,"name":"MeshInstance3D4","scale":[35,1,0.100000001490116],"translation":[0.00000000000208164995657567,0.200000002980232,-6]},{"extensions":{},"mesh":6,"name":"MeshInstance3D5","scale":[35,1,0.100000001490116],"translation":[0.00000000000208164995657567,0.200000002980232,-11.5]},{"extensions":{},"mesh":7,"name":"MeshInstance3D6","scale":[35,1,0.100000001490116],"translation":[0.00000000000208164995657567,0.200000002980232,-12.53639984130859]},{"children":[13],"extensions":{},"name":"StartLine","translation":[-24.80340003967285,0.200000002980232,-0.08699990063906]},{"extensions":{},"mesh":8,"name":"MeshInstance3D8","rotation":[0.000000000000000246629709749308,0.70710676908493,0.00000000000000000000007486784133,0.70710676908493],"scale":[12.5,1,0.100000001490116]},{"children":[15],"extensions":{},"name":"GoalLine","translation":[21.8022003173828,0.238600999116898,0.00000000000208164995657567]},{"extensions":{},"mesh":9,"name":"GoalMesh","scale":[1,1,12.5]}],"scene":0,"scenes":[{"nodes":[0]}]}